<svg version="1.0" xmlns="http://www.w3.org/2000/svg" width="24" height="24" viewBox="0 0 600.000000 600.000000" preserveAspectRatio="xMidYMid meet" style="width: 24px; height: 24px;"> <g transform="translate(0.000000,600.000000) scale(0.040000,-0.040000)" fill="#ff742b" stroke="none" class="">   <path d="M1700 14881 c-34 -4 -158 -25 -274 -47 -194 -37 -245 -53 -351 -113 -21 -12 -66 -33 -100 -48 -127 -54 -407 -290 -525 -442 -217 -282 -312 -517 -376 -931 -41 -265 -20 -11710 22 -11837 18 -55 50 -162 73 -238 22 -76 52 -154 67 -175 15 -21 49 -77 75 -125 128 -234 559 -650 673 -650 17 0 44 -13 60 -29 38 -38 277 -121 350 -121 33 0 81 -12 107 -26 67 -35 11881 -35 11948 0 26 14 74 26 107 26 73 0 312 83 350 121 16 16 43 29 60 29 60 0 423 298 523 429 128 168 261 387 261 429 0 18 10 43 23 56 27 27 74 253 103 486 30 247 29 11457 -1 11638 -78 465 -142 618 -391 938 -107 137 -389 371 -509 422 -34 15 -79 37 -100 49 -281 166 43 158 -6337 162 -3177 2 -5804 0 -5838 -3z m11242 -1939 c11 -12 11 -10922 0 -10934 -12 -11 -10922 -11 -10934 0 -12 13 -10 10918 2 10938 10 16 10915 12 10932 -4z" class=""></path> <path d="M2460 12496 c-12 -20 -14 -10025 -2 -10038 12 -11 10022 -11 10034 0 11 12 11 10022 0 10034 -17 16 -10022 20 -10032 4z m3193 -1796 l323 0 -2 -1340 c-1 -738 3 -1345 9 -1351 17 -17 3192 -12 3220 5 14 9 19 32 12 51 -8 20 -15 618 -16 1329 l-2 1294 377 0 377 0 0 -3213 0 -3212 -377 0 -376 0 1 1443 c1 793 8 1459 16 1478 7 20 2 43 -12 52 -37 23 -3209 19 -3226 -4 -8 -11 -9 -682 -2 -1491 7 -809 3 -1476 -8 -1483 -24 -15 -717 -17 -732 -2 -17 17 -12 6420 5 6448 8 13 32 18 52 10 20 -8 183 -14 361 -14z" class=""></path>    </g> </svg>